<svg viewBox="0 0 39 27">
<path d="M37.9,7.3L19.3,0c-0.1,0-0.2,0-0.4,0L0.3,7.3C0.1,7.4,0,7.5,0,7.7c0,0.2,0.1,0.4,0.3,0.5l5.6,2.9v9.8c0,2.8,5.7,6,13.2,6
	c7.6,0,13.2-3.2,13.2-6v-9.8l3-1.5v6.7c-0.7,0.2-1.2,0.9-1.2,1.6c0,0.5,0.2,1,0.6,1.3l-0.7,6.5c0,0.1,0,0.3,0.1,0.4
	c0.1,0.1,0.2,0.2,0.4,0.2h2.6c0.1,0,0.3-0.1,0.4-0.2c0.1-0.1,0.1-0.2,0.1-0.4L37,19.2c0.4-0.3,0.6-0.8,0.6-1.3
	c0-0.8-0.5-1.4-1.2-1.6V9L38,8.2c0.2-0.1,0.3-0.3,0.3-0.5C38.3,7.5,38.1,7.4,37.9,7.3z M36.6,25.2h-1.4l0.6-5.6c0.1,0,0.1,0,0.2,0
	s0.1,0,0.2,0L36.6,25.2z M36.6,17.9c0,0.4-0.3,0.7-0.7,0.7s-0.7-0.3-0.7-0.7s0.3-0.7,0.7-0.7S36.6,17.5,36.6,17.9z M31.4,20.9
	c0,2-4.9,5-12.2,5c-7.4,0-12.2-3-12.2-5v-9.3l12,6.2c0.1,0,0.2,0.1,0.2,0.1s0.2,0,0.2-0.1l12-6.2V20.9z M35.8,8.2L19.2,7.5
	c-0.3,0-0.5,0.2-0.5,0.5c0,0.3,0.2,0.5,0.5,0.5L34,9.1l-14.9,7.7l-17.4-9L19.1,1l17.4,6.8L35.8,8.2z"/>
</svg>
