<svg viewBox="0 0 41 25">
<path d="M39.8,20.4h-3.1v-18c0-1.3-1.1-2.4-2.4-2.4H5.9C4.6,0,3.5,1.1,3.5,2.4v18h-3c-0.3,0-0.5,0.2-0.5,0.5c0,1.9,1.6,3.5,3.5,3.5
	h33.2c2,0,3.5-1.6,3.5-3.5C40.3,20.6,40.1,20.4,39.8,20.4z M4.5,2.4C4.5,1.6,5.1,1,5.9,1h28.5c0.8,0,1.4,0.6,1.4,1.4v18H4.5V2.4z
	 M36.8,23.4H3.5c-1.2,0-2.3-0.9-2.5-2h38.2C39,22.5,38,23.4,36.8,23.4z M15.3,7.5l-3.9,3.9l3.9,3.9c0.2,0.2,0.2,0.5,0,0.7
	c-0.1,0.1-0.2,0.1-0.4,0.1s-0.3,0-0.4-0.1l-4.2-4.2c-0.2-0.2-0.2-0.5,0-0.7l4.2-4.2c0.2-0.2,0.5-0.2,0.7,0S15.5,7.3,15.3,7.5z
	 M29.5,11c0.2,0.2,0.2,0.5,0,0.7L25.2,16c-0.1,0.1-0.2,0.1-0.4,0.1s-0.3,0-0.4-0.1c-0.2-0.2-0.2-0.5,0-0.7l3.9-3.9l-3.9-3.9
	c-0.2-0.2-0.2-0.5,0-0.7s0.5-0.2,0.7,0L29.5,11z M22.8,6.3l-5.3,10.8c-0.1,0.2-0.3,0.3-0.4,0.3c-0.1,0-0.1,0-0.2-0.1
	c-0.2-0.1-0.3-0.4-0.2-0.7l5.3-10.8c0.1-0.2,0.4-0.4,0.7-0.2C22.8,5.7,22.9,6,22.8,6.3z"/>
</svg>
