<svg viewBox="0 0 36 31">
<path d="M13.2,24.4v5.5c0,0.2-0.1,0.4-0.3,0.5c-0.1,0-0.1,0-0.2,0c-0.1,0-0.3-0.1-0.4-0.1l-2.4-2.4l-2.4,2.4
	c-0.1,0.1-0.4,0.2-0.5,0.1c-0.2-0.1-0.3-0.3-0.3-0.5v-5.5c0-0.3,0.2-0.5,0.5-0.5s0.5,0.2,0.5,0.5v4.3l1.9-1.9c0.2-0.2,0.5-0.2,0.7,0
	l1.9,1.9v-4.3c0-0.3,0.2-0.5,0.5-0.5S13.2,24.1,13.2,24.4z M34.5,0H1.3C0.6,0,0,0.6,0,1.3v23.3c0,0.7,0.6,1.3,1.3,1.3h3.7
	c0.3,0,0.5-0.2,0.5-0.5c0-0.3-0.2-0.5-0.5-0.5H1.3c-0.2,0-0.3-0.2-0.3-0.3V1.3C1,1.2,1.2,1,1.3,1h33.2c0.2,0,0.3,0.2,0.3,0.3v23.3
	c0,0.2-0.2,0.3-0.3,0.3H14.8c-0.3,0-0.5,0.2-0.5,0.5c0,0.3,0.2,0.5,0.5,0.5h19.7c0.7,0,1.3-0.6,1.3-1.3V1.3C35.9,0.6,35.3,0,34.5,0z
	 M15.5,18c0,3.1-2.5,5.6-5.6,5.6S4.4,21.1,4.4,18s2.5-5.6,5.6-5.6S15.5,15,15.5,18z M14.5,18c0-2.5-2.1-4.6-4.6-4.6S5.4,15.5,5.4,18
	c0,2.5,2.1,4.6,4.6,4.6S14.5,20.6,14.5,18z M31,5.8H4.9C4.6,5.8,4.4,6,4.4,6.3c0,0.3,0.2,0.5,0.5,0.5H31c0.3,0,0.5-0.2,0.5-0.5
	C31.5,6,31.3,5.8,31,5.8z M31,10.4H16.2c-0.3,0-0.5,0.2-0.5,0.5s0.2,0.5,0.5,0.5H31c0.3,0,0.5-0.2,0.5-0.5S31.3,10.4,31,10.4z
	 M31,15H20c-0.3,0-0.5,0.2-0.5,0.5c0,0.3,0.2,0.5,0.5,0.5h11c0.3,0,0.5-0.2,0.5-0.5C31.5,15.2,31.3,15,31,15z M31,19.7h-9.3
	c-0.3,0-0.5,0.2-0.5,0.5s0.2,0.5,0.5,0.5H31c0.3,0,0.5-0.2,0.5-0.5S31.3,19.7,31,19.7z"/>
</svg>
