<svg viewBox="0 0 45 26">
<path d="M36.4,10c-0.7,0-1.4,0.1-2.1,0.3l-1.5-4.4l-1-5.5c0-0.2-0.3-0.4-0.5-0.4h-3c-0.3,0-0.5,0.2-0.5,0.5S28,1,28.3,1h2.6l0.9,4.5
	H18c-0.1,0-0.1,0-0.2,0l-1.1-3h2.4c0.3,0,0.5-0.2,0.5-0.5s-0.2-0.5-0.5-0.5h-5.3c-0.3,0-0.5,0.2-0.5,0.5s0.2,0.5,0.5,0.5h1.9
	c0,0,0,0,0,0l1.4,3.7l-4.6,5.3c-1.3-1-2.9-1.6-4.7-1.6C3.5,10,0,13.5,0,17.7s3.5,7.8,7.8,7.8c4.3,0,7.8-3.5,7.8-7.8l3.2-0.3
	c0.3,1.1,1.3,1.9,2.4,2.1v1.9H20c-0.3,0-0.5,0.2-0.5,0.5s0.2,0.5,0.5,0.5h3.3c0.3,0,0.5-0.2,0.5-0.5s-0.2-0.5-0.5-0.5h-1.1v-1.9
	c1.5-0.2,2.6-1.5,2.6-3c0-0.6-0.2-1.2-0.5-1.7l7.8-7.9l1.3,3.7c-2.8,1.2-4.7,3.9-4.7,7.1c0,4.3,3.5,7.8,7.8,7.8
	c4.3,0,7.8-3.5,7.8-7.8S40.7,10,36.4,10z M17.5,7.4l2.5,6.6c-0.8,0.5-1.3,1.4-1.3,2.4l-3.2,0.3c-0.2-1.8-1-3.3-2.2-4.5L17.5,7.4z
	 M12.6,13c1,1,1.7,2.4,1.9,3.9l-5.8,0.6L12.6,13z M7.8,24.5c-3.7,0-6.8-3-6.8-6.8S4,11,7.8,11c1.5,0,2.9,0.5,4,1.4l-4.4,5.1
	c-0.1,0.1-0.1,0.3-0.1,0.5c0,0.1,0,0.1,0,0.2c0,0.3,0.2,0.5,0.5,0.5c0,0,0,0,0,0l6.7-0.7C14.5,21.5,11.5,24.5,7.8,24.5z M22.2,18.6
	v-2c0-0.3-0.2-0.5-0.5-0.5s-0.5,0.2-0.5,0.5v2c-0.9-0.2-1.6-1-1.6-2c0-1.2,0.9-2.1,2.1-2.1c1.2,0,2.1,0.9,2.1,2.1
	C23.8,17.5,23.1,18.3,22.2,18.6z M23.6,14.1c-0.5-0.4-1.2-0.7-1.9-0.7c-0.3,0-0.6,0.1-0.9,0.1l-2.6-7.1l0,0h12.8L23.6,14.1z
	 M36.4,24.5c-3.7,0-6.8-3-6.8-6.8c0-2.8,1.7-5.1,4-6.2l2.3,6.6c0.1,0.2,0.3,0.3,0.5,0.3c0.1,0,0.1,0,0.2,0c0.3-0.1,0.4-0.4,0.3-0.6
	l-2.3-6.6c0.6-0.2,1.2-0.2,1.8-0.2c3.7,0,6.8,3,6.8,6.8S40.1,24.5,36.4,24.5z"/>
</svg>
