<svg viewBox="0 0 30 28">
<path fill="#231F20" d="M19,3.2c-3.6,0-6.5,2.7-6.9,6.2c0,0.3-0.2,0.4-0.5,0.4c0,0,0,0-0.1,0c-0.3,0-0.5-0.3-0.4-0.6
	c0.4-4,3.9-7.1,7.9-7.1c0.3,0,0.5,0.2,0.5,0.5C19.5,3,19.2,3.2,19,3.2z M26.4,9.7c-0.3,0-0.5,0.2-0.5,0.5c0,3.8-3.1,7-7,7
	c-0.3,0-0.5,0.2-0.5,0.5c0,0.3,0.2,0.5,0.5,0.5c4.4,0,8-3.6,8-8C26.9,9.9,26.7,9.7,26.4,9.7z M29.1,10.2c0,5.6-4.6,10.2-10.2,10.2
	c-2.2,0-4.3-0.7-6-2l-9.4,8.8C2.9,27.7,2.5,28,2,28c-0.4,0-0.8-0.2-1.3-0.7c0,0,0,0,0,0c0,0,0,0,0,0c0,0,0,0,0,0v0
	c-1-1.1-0.9-1.7,0.3-2.8l9.4-8.7c-1-1.6-1.6-3.5-1.6-5.5C8.8,4.6,13.3,0,19,0C24.6,0,29.1,4.6,29.1,10.2z M12.2,17.7
	c-0.4-0.4-0.8-0.8-1.2-1.3l-9.3,8.6c-0.8,0.7-0.8,0.8-0.3,1.4c0,0,0,0,0,0c0,0,0,0,0,0c0,0,0,0,0,0C2,27.2,2,27.2,2.8,26.4
	L12.2,17.7z M28.1,10.2C28.1,5.1,24,1,19,1s-9.2,4.1-9.2,9.2c0,5.1,4.1,9.2,9.2,9.2S28.1,15.2,28.1,10.2z"/>
</svg>
