<svg viewBox="0 0 28 26">
<path d="M25,20.3c0,0-0.1,0-0.1,0l-5.4-1.9c-0.9-0.3-2.1-0.9-2.6-1.8c0-0.1,0-0.2,0-0.3c-0.2-0.4-0.3-0.7-0.3-1
	c0-0.1,0-0.3,0-0.4c0-0.2,0.1-0.5,0.2-0.7c0.1-0.4,0.4-0.8,0.7-1.4l0.2-0.5c0.2-0.3,0.3-0.7,0.5-1.1c0.5-1,1-4.2,1-5.3
	c0-3.2-2.6-5.8-5.7-5.8c0,0,0,0-0.1,0c0,0,0,0-0.1,0c-3.2,0-5.7,2.6-5.7,5.8c0,1.1,0.6,4.3,1,5.3c0.2,0.4,0.4,0.8,0.5,1.1l0.2,0.5
	c0.3,0.6,0.5,1,0.7,1.4c0.1,0.3,0.2,0.5,0.2,0.7c0,0.1,0,0.3,0,0.4c0,0.3-0.1,0.6-0.3,1c0,0.1,0,0.2,0,0.3c-0.6,0.9-1.7,1.5-2.6,1.8
	l-5.4,1.9c0,0-0.1,0-0.1,0c-0.9,0.4-2,0.9-2,2.2l0,1.2c0,0.2,0.1,0.4,0.3,0.5c0.2,0.1,5.2,1.6,13.1,1.7c0,0,0,0,0,0c0,0,0,0,0.1,0
	s0,0,0.1,0c0,0,0,0,0,0c7.8,0,12.9-1.6,13.1-1.7c0.2-0.1,0.3-0.3,0.3-0.5l0-1.3C27,21.3,25.9,20.7,25,20.3z M26,23.4
	c-1.3,0.4-5.9,1.5-12.5,1.5c-6.6,0-11.2-1.2-12.5-1.5l0-0.9c0-0.6,0.6-0.9,1.5-1.3l5.4-1.9c1.7-0.6,2.9-1.5,3.4-2.7
	c0.7-1.7,0.3-2.6-0.7-4.6c-0.2-0.4-0.4-0.9-0.7-1.4c-0.4-0.9-0.9-4-0.9-4.9c0-2.6,2.1-4.7,4.7-4.8c2.6,0,4.7,2.2,4.7,4.8
	c0,1-0.5,4.1-0.9,4.9c-0.3,0.5-0.5,1-0.7,1.4c-1,2-1.4,2.9-0.7,4.6c0.5,1.2,1.7,2.1,3.4,2.7l5.4,1.9c0.9,0.4,1.5,0.7,1.5,1.3
	L26,23.4z"/>
</svg>
