<svg viewBox="0 0 42 29">
<path d="M40.7,7.8L20.7,0c-0.1,0-0.2,0-0.4,0l-20,7.8C0.1,7.9,0,8.1,0,8.3s0.1,0.4,0.3,0.5l6.1,3.1v10.6c0,3,6.1,6.4,14.2,6.4
	c8.1,0,14.2-3.4,14.2-6.4V11.9l3.3-1.7v7.3c-0.8,0.2-1.3,0.9-1.3,1.7c0,0.6,0.3,1,0.6,1.4l-0.7,7c0,0.1,0,0.3,0.1,0.4
	c0.1,0.1,0.2,0.2,0.4,0.2h2.7c0.1,0,0.3-0.1,0.4-0.2c0.1-0.1,0.1-0.2,0.1-0.4l-0.7-7c0.4-0.3,0.6-0.8,0.6-1.4c0-0.8-0.6-1.5-1.3-1.7
	V9.7l1.8-0.9c0.2-0.1,0.3-0.3,0.3-0.5C41,8.1,40.9,7.9,40.7,7.8z M39.4,27.1h-1.6l0.6-6.1c0.1,0,0.1,0,0.2,0s0.1,0,0.2,0L39.4,27.1z
	 M39.3,19.2c0,0.4-0.4,0.8-0.8,0.8s-0.8-0.4-0.8-0.8s0.4-0.8,0.8-0.8S39.3,18.7,39.3,19.2z M33.7,22.4c0,2.1-5.3,5.4-13.2,5.4
	S7.3,24.6,7.3,22.4V12.4l13,6.7c0.1,0,0.2,0.1,0.2,0.1s0.2,0,0.2-0.1l13-6.7V22.4z M38.5,8.8L20.5,8.1c-0.3,0-0.5,0.2-0.5,0.5
	c0,0.3,0.2,0.5,0.5,0.5l16.1,0.7l-16.1,8.3L1.7,8.4L20.5,1l18.8,7.3L38.5,8.8z"/>
</svg>
