<svg viewBox="0 0 31 32">
<path d="M2.9,8.1V3.6c0-0.3,0.2-0.5,0.5-0.5s0.5,0.2,0.5,0.5v4.4c0,0.3-0.2,0.5-0.5,0.5S2.9,8.4,2.9,8.1z M0.5,1.3
	C0.2,1.3,0,1.6,0,1.8v8.1c0,0.3,0.2,0.5,0.5,0.5S1,10.2,1,9.9V1.8C1,1.6,0.8,1.3,0.5,1.3z M27.5,22.7c-0.3,0-0.5,0.2-0.5,0.5v4.4
	c0,0.3,0.2,0.5,0.5,0.5S28,28,28,27.7v-4.4C28,23,27.7,22.7,27.5,22.7z M30.4,20.9c-0.3,0-0.5,0.2-0.5,0.5v8.1
	c0,0.3,0.2,0.5,0.5,0.5s0.5-0.2,0.5-0.5v-8.1C30.9,21.2,30.6,20.9,30.4,20.9z M28.9,8.8c0,1.9-1.5,2.6-3,3.3l-0.2,0.1l-20.1,8
	C3.7,20.8,3,21.3,3,22.5C3,23.9,4.1,25,5.4,25h5.8v-2.8c0-0.7,0.5-1.2,1.2-1.2L24,19.6c0,0,0,0,0,0c0.7,0,1.3,0.5,1.3,1.2v9.3
	c0,0.7-0.5,1.2-1.2,1.2c0,0,0,0-0.1,0l-11.7-1.4c-0.6,0-1.1-0.5-1.1-1.2V26H5.4C3.5,26,2,24.4,2,22.5c0-2,1.4-2.7,3.2-3.4l20.2-8
	c1.5-0.7,2.4-1.2,2.4-2.4c0-1.3-1.1-2.4-2.4-2.4h-5.8v2.8c0,0.7-0.5,1.2-1.2,1.2L6.8,11.7c0,0,0,0-0.1,0c-0.7,0-1.2-0.5-1.2-1.2V1.2
	C5.6,0.5,6.1,0,6.8,0l11.7,1.4c0,0,0,0,0,0c0.6,0,1.1,0.5,1.1,1.2v2.8h5.8C27.3,5.4,28.9,6.9,28.9,8.8z M8.4,10.5V1.2L6.7,1
	C6.7,1,6.6,1.1,6.6,1.2v9.3c0,0.1,0.1,0.2,0.2,0.2L8.4,10.5z M18.7,2.6c0-0.1-0.1-0.2-0.2-0.2L9.4,1.3v9.1l9-1.1
	c0.2,0,0.3-0.1,0.3-0.2V2.6z M22.5,20.8v9.3l1.6,0.2c0.1,0,0.2-0.1,0.2-0.2v-9.3c0-0.1-0.1-0.2-0.2-0.2L22.5,20.8z M12.2,22.2v3.2
	c0,0,0,0,0,0c0,0,0,0,0,0v3.2c0,0.1,0.1,0.2,0.2,0.2l9.1,1.1v-9.1l-9,1.1C12.3,22,12.2,22.1,12.2,22.2z"/>
</svg>
