<svg viewBox="0 0 33 38">
<path d="M32.6,10.5c0,0,0-0.1,0-0.1c0,0,0-0.1,0-0.1c0,0,0,0,0-0.1c0,0,0-0.1-0.1-0.1c0,0,0,0,0,0l-11.1-10c0,0,0,0,0,0l0,0
	c0,0,0,0,0,0c0,0-0.1,0-0.1-0.1c0,0-0.1,0-0.1,0C21,0,21,0,21,0H8.3C6.6,0,5.1,1.4,5.1,3.2v12H2.7c-1.5,0-2.7,1.2-2.7,2.7v7.3
	c0,1.5,1.2,2.7,2.7,2.7h2.4v6.3c0,1.8,1.4,3.2,3.2,3.2h21.1c1.8,0,3.2-1.4,3.2-3.2V33v-4.5v-9.6v-8.1L32.6,10.5
	C32.6,10.5,32.6,10.5,32.6,10.5z M21.5,1.6l9.4,8.4h-7.3c-1.1,0-2-0.9-2-2V1.6z M2.7,26.9c-0.9,0-1.7-0.8-1.7-1.7v-7.3
	c0-0.9,0.8-1.7,1.7-1.7h16.9c0.9,0,1.7,0.8,1.7,1.7v7.3c0,0.9-0.8,1.7-1.7,1.7H2.7z M31.6,18.9v9.6V33v1.2c0,1.2-1,2.2-2.2,2.2H8.3
	c-1.2,0-2.2-1-2.2-2.2v-6.3h13.4c1.5,0,2.7-1.2,2.7-2.7v-7.3c0-1.5-1.2-2.7-2.7-2.7H6.1v-12C6.1,2,7.1,1,8.3,1h12.2v7
	c0,1.7,1.4,3,3,3h8.1V18.9z M12.9,18.7h0.8v6.1h-0.8v-2.8H10v2.8H9.2v-6.1H10v2.5h2.9V18.7z M5.9,18.6c-0.6,0-1.1,0.1-1.5,0.1v6h0.8
	v-2.4c0.2,0,0.4,0.1,0.6,0.1c0.8,0,1.4-0.2,1.9-0.7c0.3-0.3,0.5-0.7,0.5-1.3c0-0.5-0.2-1-0.5-1.3C7.3,18.8,6.7,18.6,5.9,18.6z
	 M5.9,21.7c-0.3,0-0.5,0-0.6-0.1v-2.4c0.1,0,0.4-0.1,0.7-0.1c0.9,0,1.4,0.4,1.4,1.2C7.4,21.3,6.8,21.7,5.9,21.7z M16.6,18.6
	c-0.6,0-1.1,0.1-1.5,0.1v6h0.8v-2.4c0.2,0,0.4,0.1,0.6,0.1c0.8,0,1.4-0.2,1.9-0.7c0.3-0.3,0.5-0.7,0.5-1.3c0-0.5-0.2-1-0.5-1.3
	C17.9,18.8,17.4,18.6,16.6,18.6z M16.5,21.7c-0.3,0-0.5,0-0.6-0.1v-2.4c0.1,0,0.4-0.1,0.7-0.1c0.9,0,1.4,0.4,1.4,1.2
	C18,21.3,17.5,21.7,16.5,21.7z"/>
</svg>
