<svg viewBox="0 0 33 35">
<path d="M32.8,23.3c0-4.2-3-7.6-6.8-7.8V14c0-0.3-0.2-0.5-0.5-0.5h-25C0.2,13.5,0,13.7,0,14v17.1
	c0,1.7,1.4,3.1,3.1,3.1h19.7c1.7,0,3.1-1.4,3.1-3.1C29.8,30.9,32.8,27.5,32.8,23.3z M25,31.1c0,1.2-1,2.1-2.1,2.1H3.1
	c-1.2,0-2.1-1-2.1-2.1V14.5h24V31.1z M26,30.2V16.5c3.2,0.3,5.8,3.2,5.8,6.8S29.2,29.9,26,30.2z M7.8,0.2C8,0,8.3-0.1,8.5,0.1
	c0.2,0.2,0.3,0.5,0.1,0.7c-1.7,2.4-0.3,4,1.1,5.3c0.4,0.4,0.6,0.7,0.6,1.2c0,0.9-0.9,1.8-1.5,2.2C8.8,9.6,8.7,9.7,8.7,9.9
	s0,0.3,0.1,0.4c0.1,0.1,0.3,0.2,0.4,0.2c0.3,0,0.5,0.2,0.5,0.5c0,0.3-0.2,0.5-0.5,0.5c-0.5,0-0.9-0.2-1.2-0.6
	c-0.3-0.3-0.4-0.7-0.3-1.1c0-0.4,0.2-0.8,0.6-1C9,8.1,9.4,7.5,9.4,7.3c0-0.1-0.1-0.2-0.3-0.4C8,5.9,5.4,3.5,7.8,0.2z M12.2,0.2
	c0.2-0.2,0.5-0.3,0.7-0.1c0.2,0.2,0.3,0.5,0.1,0.7c-1.7,2.4-0.3,4,1.2,5.3c0.4,0.4,0.6,0.7,0.6,1.2c0,0.9-0.9,1.8-1.5,2.2
	C13,9.7,13,10,13.2,10.3c0.1,0.1,0.3,0.2,0.4,0.2c0.3,0,0.5,0.2,0.5,0.5c0,0.3-0.2,0.5-0.5,0.5c-0.5,0-0.9-0.2-1.2-0.6
	c-0.5-0.7-0.4-1.6,0.2-2.2c0.8-0.6,1.1-1.2,1.1-1.5c0-0.1-0.1-0.2-0.3-0.4C12.4,5.9,9.8,3.5,12.2,0.2z M16.6,0.2
	c0.2-0.2,0.5-0.3,0.7-0.1c0.2,0.2,0.3,0.5,0.1,0.7c-1.7,2.4-0.3,4,1.2,5.3c0.4,0.4,0.6,0.7,0.6,1.2c0,0.9-0.9,1.8-1.5,2.2
	c-0.1,0.1-0.2,0.2-0.2,0.4c0,0.1,0,0.3,0.1,0.4c0.1,0.1,0.3,0.2,0.4,0.2c0.3,0,0.5,0.2,0.5,0.5c0,0.3-0.2,0.5-0.5,0.5
	c-0.5,0-0.9-0.2-1.2-0.6c-0.3-0.3-0.4-0.7-0.3-1.1c0-0.4,0.2-0.8,0.6-1c0.8-0.6,1.1-1.2,1.1-1.5c0-0.1-0.1-0.2-0.3-0.4
	C16.8,5.9,14.2,3.5,16.6,0.2z M6.3,31.1c0,0.3-0.2,0.5-0.5,0.5c-1.7,0-3.1-1.4-3.1-3.1v-4.3c0-0.3,0.2-0.5,0.5-0.5s0.5,0.2,0.5,0.5
	v4.3c0,1.2,1,2.1,2.1,2.1C6.1,30.6,6.3,30.8,6.3,31.1z"/>
</svg>
