<svg viewBox="0 0 40 32">
<path d="M11.1,8.6H7c-0.7,0-1.3,0.6-1.3,1.3s0.6,1.3,1.3,1.3h4.1c0.7,0,1.3-0.6,1.3-1.3S11.9,8.6,11.1,8.6z M11.1,10.3H7
	c-0.2,0-0.3-0.1-0.3-0.3S6.8,9.6,7,9.6h4.1c0.2,0,0.3,0.1,0.3,0.3S11.3,10.3,11.1,10.3z M3.3,25.2c-1.8,0-3.3,1.5-3.3,3.3
	c0,1.8,1.5,3.3,3.3,3.3s3.3-1.5,3.3-3.3C6.7,26.7,5.2,25.2,3.3,25.2z M3.3,30.9c-1.3,0-2.3-1.1-2.3-2.3c0-1.3,1.1-2.3,2.3-2.3
	s2.3,1.1,2.3,2.3C5.7,29.9,4.6,30.9,3.3,30.9z M10.8,25.2c-1.8,0-3.3,1.5-3.3,3.3c0,1.8,1.5,3.3,3.3,3.3s3.3-1.5,3.3-3.3
	C14.1,26.7,12.6,25.2,10.8,25.2z M10.8,30.9c-1.3,0-2.3-1.1-2.3-2.3c0-1.3,1.1-2.3,2.3-2.3s2.3,1.1,2.3,2.3
	C13.1,29.9,12.1,30.9,10.8,30.9z M18.3,25.2c-1.8,0-3.3,1.5-3.3,3.3c0,1.8,1.5,3.3,3.3,3.3s3.3-1.5,3.3-3.3
	C21.6,26.7,20.1,25.2,18.3,25.2z M18.3,30.9c-1.3,0-2.3-1.1-2.3-2.3c0-1.3,1.1-2.3,2.3-2.3c1.3,0,2.3,1.1,2.3,2.3
	C20.6,29.9,19.5,30.9,18.3,30.9z M30.3,21.7c0.6,0,1.2,0.1,1.7,0.1c1.3,0,2.5-0.2,3.3-0.9c0.6-0.5,0.8-1.3,0.8-2.3
	c0-2.4-3.6-4-7-5.6c-2.1-0.9-4.3-1.9-4.9-2.8c-0.2-0.3-0.3-0.6-0.4-1.1H24c0.3,0,0.5-0.2,0.5-0.5V4.4c0-0.3-0.2-0.5-0.5-0.5h-0.5
	c0-1.5-0.1-2.8-0.7-3.5c-0.3-0.3-0.6-0.4-1-0.4c-2,0-3.4,1.5-4,2.3c-0.7-0.4-2-1.2-3-1c-0.8,0.2-1.4,1-2,2.6c0,0,0,0-0.1-0.1
	c-0.3-0.3-0.6-0.4-1-0.4c-2,0-3.4,1.5-4,2.3c-0.7-0.4-2-1.2-3-1c-3.3,0.7-3.6,14-3.6,14.1c0,2.9,0,6.3,2.3,6.3h15
	c0.6,0,1.2,0,1.8,0.1c0.6,0,1.2,0.1,1.7,0.1c0.9,0,2-0.1,2.8-0.6c0.1,0,0.1-0.1,0.2-0.2c-0.1,0.3-0.1,0.5-0.1,0.8c0,0,0,0.1,0,0.1
	c-1.5,0.3-2.6,1.7-2.6,3.2c0,1.8,1.5,3.3,3.3,3.3s3.3-1.5,3.3-3.3c0,0,0-0.1,0-0.1c1.5-0.4,2.6-1.7,2.6-3.2c0-1.8-1.5-3.3-3.3-3.3
	c-0.9,0-1.7,0.3-2.3,0.9c0-0.3,0.1-0.5,0.1-0.8c0-0.1,0-0.2,0-0.3h2.4C29.1,21.7,29.7,21.7,30.3,21.7z M24.3,23.8
	c-0.5,0.3-1.2,0.4-2.3,0.4c-0.5,0-1.1,0-1.7-0.1c-0.6,0-1.2-0.1-1.8-0.1h-15c-1.1,0-1.3-1.9-1.3-5.3C2.2,13.8,3.5,6,5,5.6
	c0,0,0.1,0,0.2,0c0.8,0,2,0.8,2.4,1.1C7.7,6.8,7.9,6.9,8,6.8c0.1,0,0.3-0.1,0.3-0.2c0,0,1.4-2.2,3.5-2.2c0.2,0,0.2,0.1,0.3,0.1
	c0.5,0.5,0.4,2.2,0.4,3.3c0,0.1,0,0.3,0.1,0.4c0.1,0.1,0.2,0.1,0.4,0.1h0.5v3.2h-0.4c-0.1,0-0.3,0.1-0.4,0.2
	c-0.1,0.1-0.1,0.3-0.1,0.4c0.1,0.9,0.4,1.6,0.7,2.1c0.8,1.2,3,2.1,5.3,3.2c3,1.3,6.4,2.8,6.4,4.6C25.1,23.1,24.6,23.5,24.3,23.8z
	 M25.7,30.9c-1.3,0-2.3-1.1-2.3-2.3c0-1.2,0.9-2.2,2.1-2.3c0.1,0,0.1,0,0.2,0c0,0,0,0,0.1,0c0,0,0,0,0.1,0c1.3,0,2.3,1.1,2.3,2.3
	C28.1,29.9,27,30.9,25.7,30.9z M28.3,22.9c1.3,0,2.3,1.1,2.3,2.3c0,1.1-0.8,2-1.8,2.3c-0.4-1.2-1.6-2.1-2.9-2.2c0,0,0,0,0-0.1
	C25.9,23.9,27,22.9,28.3,22.9z M19.1,16.4c-2.1-0.9-4.3-1.9-4.9-2.8c-0.2-0.3-0.3-0.6-0.4-1.1H14c0.3,0,0.5-0.2,0.5-0.5V7.8
	c0-0.3-0.2-0.5-0.5-0.5h-0.5c0-0.7,0-1.3-0.1-1.9c0.7-2.8,1.4-3.1,1.6-3.1c0.6-0.1,1.9,0.6,2.6,1.1c0.1,0.1,0.3,0.1,0.4,0.1
	c0.1,0,0.3-0.1,0.3-0.2c0,0,1.4-2.2,3.5-2.2c0.2,0,0.2,0.1,0.3,0.1c0.5,0.5,0.4,2.2,0.4,3.3c0,0.1,0,0.3,0.1,0.4
	c0.1,0.1,0.2,0.1,0.4,0.1h0.5v3.2h-0.4c-0.1,0-0.3,0.1-0.4,0.2c-0.1,0.1-0.1,0.3-0.1,0.4c0.1,0.9,0.4,1.6,0.7,2.1
	c0.8,1.2,3,2.1,5.3,3.2c3,1.3,6.4,2.8,6.4,4.6c0,0.7-0.2,1.3-0.5,1.6c-0.8,0.7-2.5,0.7-4.2,0.6c-0.6,0-1.2-0.1-1.8-0.1h-2.7
	C24.8,18.9,21.9,17.6,19.1,16.4z M21.2,5.2H17c-0.7,0-1.3,0.6-1.3,1.3s0.6,1.3,1.3,1.3h4.1c0.7,0,1.3-0.6,1.3-1.3S21.9,5.2,21.2,5.2
	z M21.2,6.9H17c-0.2,0-0.3-0.1-0.3-0.3s0.1-0.3,0.3-0.3h4.1c0.2,0,0.3,0.1,0.3,0.3S21.3,6.9,21.2,6.9z M35.7,21.9
	c-1.8,0-3.3,1.5-3.3,3.3c0,1.8,1.5,3.3,3.3,3.3s3.3-1.5,3.3-3.3C39.1,23.4,37.6,21.9,35.7,21.9z M35.7,27.6c-1.3,0-2.3-1.1-2.3-2.3
	c0-1.3,1.1-2.3,2.3-2.3c1.3,0,2.3,1.1,2.3,2.3C38.1,26.5,37,27.6,35.7,27.6z"/>
</svg>
