<svg viewBox="0 0 32 32">
<path d="M15.9,10c-3.3,0-5.9,2.7-5.9,5.9c0,3.3,2.7,5.9,5.9,5.9s5.9-2.7,5.9-5.9C21.9,12.7,19.2,10,15.9,10z M15.9,20.9
	c-2.7,0-4.9-2.2-4.9-4.9c0-2.7,2.2-4.9,4.9-4.9c2.7,0,4.9,2.2,4.9,4.9C20.9,18.7,18.7,20.9,15.9,20.9z M31.5,12.7
	c-0.1-0.3-0.3-0.4-0.6-0.4l-2,0.4c-0.7,0-1.6-0.2-1.8-0.6l-0.6-1.3c-0.2-0.4,0.4-1.2,0.7-1.7l1.8-1.3c0.2-0.2,0.3-0.5,0.1-0.7
	c-1.2-1.8-2.7-3.3-4.5-4.5c-0.2-0.1-0.5-0.1-0.7,0.1l-1.2,1.7c-0.3,0.3-1.3,1-1.7,0.9l-1.3-0.5c-0.4-0.2-0.6-1.1-0.7-1.7l0.3-2.2
	c0-0.3-0.1-0.5-0.4-0.6c-2.2-0.4-4.5-0.4-6.7,0.1C12.1,0.5,12,0.7,12,1l0.4,2c0,0.7-0.2,1.6-0.6,1.8l-1.3,0.6
	c-0.4,0.2-1.3-0.5-1.7-0.7L7.6,2.9C7.4,2.7,7.1,2.7,6.9,2.8C5.1,4.1,3.6,5.6,2.4,7.5C2.3,7.7,2.4,8,2.6,8.1l1.7,1.2
	c0.5,0.5,1,1.3,0.9,1.7l-0.5,1.3C4.4,12.7,3.5,13,2.9,13l-2.1-0.3c-0.3,0-0.5,0.1-0.6,0.4c-0.4,2.1-0.3,4.3,0.1,6.4
	c0.1,0.3,0.3,0.4,0.6,0.4l2-0.4c0.7,0,1.6,0.2,1.8,0.6l0.6,1.3c0.2,0.4-0.4,1.2-0.7,1.7l-1.7,1.2c-0.2,0.2-0.3,0.5-0.1,0.7
	c1.2,1.8,2.8,3.3,4.6,4.4c0.2,0.1,0.5,0.1,0.7-0.1l1.2-1.7c0.3-0.3,1.3-1,1.7-0.9l1.3,0.5c0.4,0.2,0.6,1.1,0.7,1.7L12.7,31
	c0,0.3,0.1,0.5,0.4,0.6c0.9,0.2,1.9,0.3,2.9,0.3c1.1,0,2.2-0.1,3.3-0.3c0.3-0.1,0.4-0.3,0.4-0.6l-0.4-2c0-0.7,0.2-1.6,0.6-1.8
	l1.3-0.6c0.4-0.2,1.3,0.5,1.7,0.7l1.3,1.8c0.2,0.2,0.5,0.3,0.7,0.1c1.8-1.2,3.3-2.7,4.5-4.5c0.1-0.2,0.1-0.5-0.1-0.7l-1.7-1.2
	c-0.5-0.5-1-1.3-0.9-1.7l0.5-1.3c0.2-0.4,1.1-0.6,1.7-0.7l2.2,0.3c0.3,0,0.5-0.1,0.6-0.4C32,16.9,32,14.8,31.5,12.7z M30.7,18.4
	l-1.8-0.3c-0.4,0-2.2,0.1-2.7,1.3l-0.5,1.3c-0.5,1.1,0.8,2.5,1.1,2.8l1.4,0.9c-1,1.4-2.2,2.6-3.6,3.6l-1.1-1.5
	c-0.1-0.1-1.2-1.1-2.2-1.1c-0.2,0-0.4,0-0.6,0.1l-1.3,0.6c-1.1,0.5-1.2,2.3-1.2,2.8l0.3,1.6c-1.6,0.3-3.2,0.3-4.8,0.1L14,29
	c0-0.4-0.1-2.2-1.3-2.7l-1.3-0.5c-0.2-0.1-0.3-0.1-0.5-0.1c-1,0-2.1,1-2.3,1.2l-0.9,1.4c-1.4-1-2.7-2.1-3.7-3.5l1.4-1
	c0.2-0.3,1.5-1.7,1-2.8l-0.6-1.3c-0.5-1.1-2.3-1.2-2.8-1.2l-1.6,0.3c-0.3-1.7-0.4-3.4-0.1-5.1L2.8,14c0.4,0,2.2-0.1,2.7-1.3l0.5-1.3
	c0.4-1.1-0.8-2.5-1.1-2.8L3.5,7.6c1-1.4,2.1-2.7,3.5-3.7l1,1.4c0.1,0.1,1.2,1.1,2.2,1.1c0.2,0,0.4,0,0.6-0.1l1.3-0.6
	c1.1-0.5,1.2-2.3,1.2-2.8l-0.3-1.6c1.8-0.3,3.6-0.4,5.3-0.1L18.1,3c0,0.4,0.1,2.2,1.3,2.7l1.3,0.5c0.2,0.1,0.3,0.1,0.5,0.1
	c1,0,2.1-1,2.3-1.2l0.9-1.4c1.4,1,2.6,2.2,3.6,3.6l-1.5,1.1c-0.2,0.3-1.5,1.7-1,2.8l0.6,1.3c0.5,1.1,2.3,1.2,2.8,1.2c0,0,0,0,0,0
	l1.6-0.3C30.9,15,31,16.7,30.7,18.4z"/>
</svg>
