<?xml version="1.0" encoding="utf-8"?>
<!-- Generator: Adobe Illustrator 16.0.0, SVG Export Plug-In . SVG Version: 6.00 Build 0)  -->
<!DOCTYPE svg PUBLIC "-//W3C//DTD SVG 1.1//EN" "http://www.w3.org/Graphics/SVG/1.1/DTD/svg11.dtd">
<svg version="1.1" id="icons" xmlns="http://www.w3.org/2000/svg" xmlns:xlink="http://www.w3.org/1999/xlink" x="0px" y="0px"
	 width="39px" height="27px" viewBox="0 0 39 27" enable-background="new 0 0 39 27" xml:space="preserve">
<g display="none">
	
		<polyline display="inline" fill="none" stroke="#000000" stroke-linecap="round" stroke-linejoin="round" stroke-miterlimit="10" points="
		-247.4,-45.8 -223.7,-45.8 -223.7,-48.3 -238.4,-48.3 	"/>
	
		<circle display="inline" fill="none" stroke="#000000" stroke-linecap="round" stroke-linejoin="round" stroke-miterlimit="10" cx="-247.4" cy="-63.2" r="17.4"/>
	
		<circle display="inline" fill="none" stroke="#000000" stroke-linecap="round" stroke-linejoin="round" stroke-miterlimit="10" cx="-247.4" cy="-63.2" r="14.9"/>
	
		<circle display="inline" fill="none" stroke="#000000" stroke-linecap="round" stroke-linejoin="round" stroke-miterlimit="10" cx="-247.4" cy="-63.2" r="1"/>
	<g display="inline">
		
			<circle fill="none" stroke="#000000" stroke-linecap="round" stroke-linejoin="round" stroke-miterlimit="10" cx="-247.4" cy="-71" r="3.5"/>
		
			<circle fill="none" stroke="#000000" stroke-linecap="round" stroke-linejoin="round" stroke-miterlimit="10" cx="-247.4" cy="-55.3" r="3.5"/>
	</g>
	<g display="inline">
		
			<circle fill="none" stroke="#000000" stroke-linecap="round" stroke-linejoin="round" stroke-miterlimit="10" cx="-239.6" cy="-63.2" r="3.5"/>
		
			<circle fill="none" stroke="#000000" stroke-linecap="round" stroke-linejoin="round" stroke-miterlimit="10" cx="-255.2" cy="-63.2" r="3.5"/>
	</g>
</g>
<path d="M37.9,7.3L19.3,0c-0.1,0-0.2,0-0.4,0L0.3,7.3C0.1,7.4,0,7.5,0,7.7c0,0.2,0.1,0.4,0.3,0.5l5.6,2.9v9.8c0,2.8,5.7,6,13.2,6
	c7.6,0,13.2-3.2,13.2-6v-9.8l3-1.5v6.7c-0.7,0.2-1.2,0.9-1.2,1.6c0,0.5,0.2,1,0.6,1.3l-0.7,6.5c0,0.1,0,0.3,0.1,0.4
	c0.1,0.1,0.2,0.2,0.4,0.2h2.6c0.1,0,0.3-0.1,0.4-0.2c0.1-0.1,0.1-0.2,0.1-0.4L37,19.2c0.4-0.3,0.6-0.8,0.6-1.3
	c0-0.8-0.5-1.4-1.2-1.6V9L38,8.2c0.2-0.1,0.3-0.3,0.3-0.5C38.3,7.5,38.1,7.4,37.9,7.3z M36.6,25.2h-1.4l0.6-5.6c0.1,0,0.1,0,0.2,0
	s0.1,0,0.2,0L36.6,25.2z M36.6,17.9c0,0.4-0.3,0.7-0.7,0.7s-0.7-0.3-0.7-0.7s0.3-0.7,0.7-0.7S36.6,17.5,36.6,17.9z M31.4,20.9
	c0,2-4.9,5-12.2,5c-7.4,0-12.2-3-12.2-5v-9.3l12,6.2c0.1,0,0.2,0.1,0.2,0.1s0.2,0,0.2-0.1l12-6.2V20.9z M35.8,8.2L19.2,7.5
	c-0.3,0-0.5,0.2-0.5,0.5c0,0.3,0.2,0.5,0.5,0.5L34,9.1l-14.9,7.7l-17.4-9L19.1,1l17.4,6.8L35.8,8.2z"/>
</svg>
