<svg viewBox="0 0 38 38">
<path d="M18.8,15.8c-1.6,0-3,1.3-3,3s1.3,3,3,3s3-1.3,3-3S20.4,15.8,18.8,15.8z M18.8,20.7c-1.1,0-2-0.9-2-2
	s0.9-2,2-2c1.1,0,2,0.9,2,2S19.8,20.7,18.8,20.7z M37,18.2h-2C34.8,9.7,27.8,2.7,19.2,2.5v-2C19.2,0.2,19,0,18.8,0s-0.5,0.2-0.5,0.5
	v2C9.7,2.7,2.7,9.7,2.5,18.2h-2c-0.3,0-0.5,0.2-0.5,0.5s0.2,0.5,0.5,0.5h2C2.7,27.8,9.7,34.8,18.2,35v2c0,0.3,0.2,0.5,0.5,0.5
	s0.5-0.2,0.5-0.5v-2c8.6-0.3,15.5-7.2,15.8-15.8h2c0.3,0,0.5-0.2,0.5-0.5S37.3,18.2,37,18.2z M34,18.2h-4.2
	C29.6,12.5,25,7.9,19.2,7.6V3.5C27.3,3.7,33.8,10.2,34,18.2z M26.8,19.2h2c-0.3,5.2-4.4,9.4-9.6,9.6v-2c0-0.3-0.2-0.5-0.5-0.5
	s-0.5,0.2-0.5,0.5v2c-5.2-0.3-9.4-4.4-9.6-9.6h2c0.3,0,0.5-0.2,0.5-0.5s-0.2-0.5-0.5-0.5h-2c0.3-5.2,4.4-9.3,9.6-9.6v2
	c0,0.3,0.2,0.5,0.5,0.5s0.5-0.2,0.5-0.5v-2c5.2,0.3,9.4,4.4,9.6,9.6h-2c-0.3,0-0.5,0.2-0.5,0.5S26.6,19.2,26.8,19.2z M18.2,3.5v4.2
	C12.5,7.9,7.9,12.5,7.6,18.2H3.5C3.7,10.2,10.2,3.7,18.2,3.5z M3.5,19.2h4.2c0.3,5.7,4.9,10.4,10.6,10.6V34
	C10.2,33.8,3.7,27.3,3.5,19.2z M19.2,34v-4.2C25,29.6,29.6,25,29.9,19.2H34C33.8,27.3,27.3,33.8,19.2,34z"/>
</svg>
