<svg viewBox="0 0 33 27">
<path d="M2.3,19.1h27.8c0.3,0,0.5-0.2,0.5-0.5V2.3c0-0.3-0.2-0.5-0.5-0.5H2.3C2,1.8,1.8,2.1,1.8,2.3v16.3
	C1.8,18.9,2,19.1,2.3,19.1z M2.8,2.8h26.8v15.3H2.8V2.8z M31.9,0H0.5C0.2,0,0,0.2,0,0.5v20C0,20.8,0.2,21,0.5,21h11.9l0,0.8
	c0,0.1-0.2,2.2-2,2.2H8.8c-0.8,0-1.4,0.6-1.4,1.4c0,0.8,0.6,1.4,1.4,1.4h14.7c0.8,0,1.4-0.6,1.4-1.4c0-0.8-0.6-1.4-1.4-1.4h-1.8
	c-1.8,0-2-2.1-2-2.2V21h12.2c0.3,0,0.5-0.2,0.5-0.5v-20C32.4,0.2,32.1,0,31.9,0z M24,25.4c0,0.2-0.2,0.4-0.4,0.4H8.8
	c-0.2,0-0.4-0.2-0.4-0.4c0-0.2,0.2-0.4,0.4-0.4h14.7C23.8,25,24,25.1,24,25.4z M18.7,21.8c0,0.6,0.3,1.4,0.8,2.1h-6.9
	c0.6-0.7,0.8-1.5,0.9-2.2V21h5.2L18.7,21.8z M31.4,20H1V1h30.4V20z"/>
</svg>
