<svg viewBox="0 0 25 30">
<path d="M3.7,13.7L21.4,3.4l-2-3.4L0,11.2l1.7,2.9v3.5v11.9h22.4V17.7v-4H3.7z M5.4,14.7h3.2l-2,2H3.4L5.4,14.7z M2.7,15.9v-1.3H4
	L2.7,15.9z M10,14.7h3.2l-2,2H8L10,14.7z M14.6,14.7h3.2l-2,2h-3.2L14.6,14.7z M19.2,14.7h3.2l-2,2h-3.2L19.2,14.7z M23.1,15.4v1.3
	h-1.3L23.1,15.4z M13.7,6.7l-2.8,1.6l0.7-2.7L14.4,4L13.7,6.7z M15.7,3.3l2.8-1.6l-0.7,2.7L14.9,6L15.7,3.3z M9.7,9L7,10.6l0.7-2.7
	l2.8-1.6L9.7,9z M5.7,11.3L3,12.9l0.7-2.7l2.8-1.6L5.7,11.3z M18.9,3.7L19.4,2L20,3.1L18.9,3.7z M2.5,10.9L2,12.7l-0.6-1.1L2.5,10.9
	z M23.1,28.6H2.7V17.7h20.4V28.6z M20.9,21.8H4.9v-1h16.1V21.8z M20.9,24.5H4.9v-1h16.1V24.5z M4.9,27.2v-1h16.1v1H4.9z"/>
</svg>
