<svg viewBox="0 0 38 25">
<path d="M36.8,16.1h-0.3c-0.2-0.5-0.7-1.7-0.7-3.1c0-1.4,0.5-2.6,0.7-3.1h0.3c0,0,0,0,0.1,0c0,0,0.1,0,0.1,0c0,0,0.1,0,0.1,0
	c0,0,0.1,0,0.1-0.1c0,0,0,0,0.1-0.1c0,0,0,0,0,0c0,0,0,0,0,0c0,0,0-0.1,0-0.1c0,0,0-0.1,0-0.1c0,0,0,0,0,0c0,0,0,0,0-0.1
	c0,0,0-0.1,0-0.1c0,0,0-0.1,0-0.1c0,0,0-0.1-0.1-0.1c0,0,0,0-0.1-0.1c0,0,0,0,0,0L21.8,0.1C21.7,0,21.6,0,21.5,0H4.1
	C1.8,0,0,1.8,0,4.1C0,5.4,0.7,6.3,1.2,7c0.2,0.2,0.5,0.5,1,0.8C0.9,8.5,0,9.9,0,11.4c0,1.3,0.7,2.2,1.2,2.9
	c1.4,1.7,14.8,8.8,16.3,9.6l0,0c0.6,0.3,1.2,0.5,1.9,0.5h17.4c0.3,0,0.5-0.2,0.5-0.5s-0.2-0.5-0.5-0.5h-0.3
	c-0.2-0.5-0.7-1.7-0.7-3.1c0-1.4,0.5-2.6,0.7-3.1h0.3c0.3,0,0.5-0.2,0.5-0.5c0,0,0,0,0,0c0,0,0,0,0,0C37.3,16.3,37,16.1,36.8,16.1z
	 M34.9,11.2h-14c-0.3,0-0.5,0.2-0.5,0.5s0.2,0.5,0.5,0.5h13.9c0,0.2,0,0.5,0,0.7c0,1.3,0.3,2.4,0.6,3.1h-16c-0.5,0-1-0.1-1.4-0.4
	c0,0,0,0,0,0c-0.1-0.1-0.2-0.1-0.3-0.2c-0.8-0.6-1.4-1.5-1.4-2.6c0-1.7,1.4-3.1,3.1-3.1h16C35.2,10.2,35.1,10.7,34.9,11.2z M1,4.1
	C1,2.4,2.4,1,4.1,1h17.3l13.5,7.9H19.3c-2.3,0-4.1,1.8-4.1,4.1c0,0.5,0.1,1,0.3,1.5C11.1,12.1,6,9.2,3.4,7.5c0,0,0,0,0,0
	C2.7,7,2.1,6.6,1.9,6.3C1.3,5.5,1,4.8,1,4.1z M1,11.4c0-1.3,0.9-2.5,2.1-2.9c4.1,2.7,13.1,7.5,14.3,8.2c0,0,0,0,0,0c0,0,0,0,0,0
	c-1.3,0.7-2.3,2.1-2.3,3.6c0,0.5,0.1,1,0.3,1.5c-5.7-3.1-12.7-7.1-13.6-8.1C1.3,12.8,1,12.1,1,11.4z M34.9,18.5h-14
	c-0.3,0-0.5,0.2-0.5,0.5s0.2,0.5,0.5,0.5h13.9c0,0.2,0,0.5,0,0.7c0,1.3,0.3,2.4,0.6,3.1h-16c-0.5,0-1-0.1-1.4-0.3c0,0,0,0,0,0
	c-0.1-0.1-0.2-0.1-0.3-0.2c-0.8-0.6-1.4-1.5-1.4-2.6c0-1.7,1.4-3.1,3.1-3.1h16C35.2,17.5,35.1,18,34.9,18.5z M18.5,13.6h8.6
	c0.3,0,0.5,0.2,0.5,0.5s-0.2,0.5-0.5,0.5h-8.6c-0.3,0-0.5-0.2-0.5-0.5S18.2,13.6,18.5,13.6z M18.5,20.9h8.6c0.3,0,0.5,0.2,0.5,0.5
	s-0.2,0.5-0.5,0.5h-8.6c-0.3,0-0.5-0.2-0.5-0.5S18.2,20.9,18.5,20.9z"/>
</svg>
